<?xml version="1.0" encoding="utf-8"?>
<!-- Generator: Adobe Illustrator 20.1.0, SVG Export Plug-In . SVG Version: 6.00 Build 0)  -->
<svg version="1.1" id="svg3715" xmlns:svg="http://www.w3.org/2000/svg"
	 xmlns="http://www.w3.org/2000/svg" xmlns:xlink="http://www.w3.org/1999/xlink" x="0px" y="0px" viewBox="0 0 60 60"
	 style="enable-background:new 0 0 60 60;" xml:space="preserve">
<style type="text/css">
	.st0{fill:#919191;}
	.st1{fill:#A78B68;}
	.st2{fill:#C19653;}
	.st3{fill:#D48C28;}
	.st4{fill:#FE8908;}
	.st5{fill:#FF7A15;}
</style>
<g id="layer1">
	<path id="path2830" class="st0" d="M7.1,34.8l4.4,0l-0.2,19.6h29.3V35h4.6v24.3H7.1C7.1,59.2,7.1,34.8,7.1,34.8z"/>
	<rect id="rect3604" x="14.3" y="46.4" class="st0" width="22.9" height="4.9"/>
	
		<rect id="rect3606" x="23.5" y="29.7" transform="matrix(9.606666e-02 -0.9954 0.9954 9.606666e-02 -17.5102 63.2126)" class="st1" width="5" height="23.1"/>
	
		<rect id="rect3606-1" x="24.8" y="21.7" transform="matrix(0.2716 -0.9624 0.9624 0.2716 -12.0963 50.5231)" class="st2" width="5" height="23.1"/>
	
		<rect id="rect3606-1-3" x="28.4" y="13.1" transform="matrix(0.517 -0.856 0.856 0.517 -6.137 38.299)" class="st3" width="5" height="23.1"/>
	
		<rect id="rect3606-1-3-7" x="35.7" y="5.1" transform="matrix(0.8129 -0.5824 0.5824 0.8129 -2.5669 25.3731)" class="st4" width="5" height="23.1"/>
	
		<rect id="rect3606-1-3-7-6" x="46.1" y="1" transform="matrix(0.9863 -0.1648 0.1648 0.9863 -1.4025 8.1748)" class="st5" width="5" height="23.1"/>
</g>
</svg>
